<svg width="45" height="46" viewBox="0 0 45 46" fill="none" xmlns="http://www.w3.org/2000/svg">
<g clip-path="url(#clip0_9181_76)">
<path fill-rule="evenodd" clip-rule="evenodd" d="M42.6562 28.1585C40.9624 31.2876 39.8495 34.7821 37.0017 36.8283C34.754 38.419 33.2456 39.9095 31.3061 40.9206C30.114 41.4796 25.6458 43.4882 24.3119 43.8093C18.5261 45.4352 10.7706 43.0256 7.44513 40.2494C-0.212404 33.6176 0.0192904 29.9852 1.07735 22.4996C1.08279 22.265 1.23282 22.1512 1.23826 21.9166C3.47204 14.5756 8.16073 3.06708 18.8158 1.20213C23.8487 0.262822 35.1941 0.408796 38.3804 2.82969C43.8448 7.12606 46.6344 23.0745 42.6562 28.1585Z" fill="#D791BF"/>
<path d="M35.106 14.9597L27.4442 22.5722L35.106 30.1846C35.2445 29.8951 35.3285 29.5751 35.3285 29.2334V15.911C35.3285 15.5692 35.2445 15.2492 35.106 14.9597Z" fill="white"/>
<path d="M33.1085 13.6902H12.2861C11.9443 13.6902 11.6243 13.7742 11.3348 13.9127L21.1274 23.656C21.9933 24.5218 23.4013 24.5218 24.2672 23.656L34.0597 13.9127C33.7703 13.7742 33.4503 13.6902 33.1085 13.6902Z" fill="white"/>
<path d="M10.2878 14.9597C10.1493 15.2492 10.0653 15.5692 10.0653 15.911V29.2334C10.0653 29.5751 10.1493 29.8952 10.2878 30.1846L17.9496 22.5722L10.2878 14.9597Z" fill="white"/>
<path d="M26.3979 23.6179L25.3138 24.7021C23.871 26.1448 21.5235 26.1448 20.0808 24.7021L18.9966 23.6179L11.3348 31.2304C11.6243 31.3689 11.9443 31.4529 12.2861 31.4529H33.1085C33.4503 31.4529 33.7703 31.3689 34.0597 31.2304L26.3979 23.6179Z" fill="white"/>
</g>
<defs>
<clipPath id="clip0_9181_76">
<rect width="45" height="45" fill="white" transform="translate(-0.00012207 0.0720215)"/>
</clipPath>
</defs>
</svg>
