<svg width="27" height="29" viewBox="0 0 27 29" fill="none" xmlns="http://www.w3.org/2000/svg">
<path fill-rule="evenodd" clip-rule="evenodd" d="M25.7998 14.5979C24.2279 15.4522 18.2075 22.5571 17.4044 23.7261C15.2921 26.5868 17.1157 27.0448 15.9655 27.9682C13.737 29.7574 12.4924 25.6311 10.2345 22.6096C8.17152 20.3052 6.11823 17.5853 4.12304 15.4012C3.77876 15.0369 1.21537 13.0178 0.378897 12.5827C0.309765 12.5218 0.460425 12.1096 0.46318 11.9909C0.747973 11.8787 4.78492 11.2004 4.78492 11.2004C5.06834 11.1476 5.35175 11.0948 5.63792 10.9233C6.92225 10.2999 8.01708 8.72202 8.88524 7.79205C9.53773 7.03523 9.67737 7.09785 10.2566 6.45809L15.4765 0.403474L17.3112 0.386672C18.4104 1.65921 17.7483 2.83149 18.6291 4.39588C19.2402 5.41956 19.5583 6.91151 20.316 7.70106L22.7301 10.073C25.0211 11.6701 24.7432 11.4855 26.2129 11.9947C26.6112 13.0728 26.636 12.0045 25.7998 14.5979Z" fill="black"/>
<path d="M14.4238 8.66431V17.9976" stroke="white" stroke-width="1.5" stroke-linecap="round" stroke-linejoin="round"/>
<path d="M16.7868 15.9983L14.4535 17.9983L12.1201 15.9983" stroke="white" stroke-width="1.5" stroke-linecap="round" stroke-linejoin="round"/>
</svg>
