<svg width="45" height="41" viewBox="0 0 45 41" fill="none" xmlns="http://www.w3.org/2000/svg">
<path fill-rule="evenodd" clip-rule="evenodd" d="M13.3722 4.6572e-06C16.7481 2.62765 17.2137 5.8085 25.1296 4.42553C25.5953 4.28723 28.7383 2.76596 30.9501 1.65958C30.8337 1.79788 30.7173 1.79787 30.4845 1.93617C32.1142 4.14893 33.1619 3.73403 35.7229 5.5319C37.7019 6.91487 38.5168 7.88295 40.1465 9.81911C47.1311 18.5318 46.0834 31.5318 40.1465 36.9254C35.8393 40.7977 25.7117 41.7658 20.3568 40.3828C15.1184 38.585 3.24457 35.6807 0.916367 25.1701C-0.480552 19.2233 -0.364143 12.8617 1.84764 7.60636C3.7102 2.76595 11.6261 1.52128 13.3722 4.6572e-06Z" fill="#FFA0EB"/>
</svg>
