<svg width="42" height="41" viewBox="0 0 42 41" fill="none" xmlns="http://www.w3.org/2000/svg">
<path fill-rule="evenodd" clip-rule="evenodd" d="M40.0313 20.6488C37.5924 21.8469 28.2645 31.8354 27.0208 33.4795C23.7493 37.5024 26.5836 38.1537 24.8 39.4506C21.3444 41.9635 19.3971 36.1466 15.8796 31.8826C12.6673 28.6294 9.46866 24.791 6.36207 21.7076C5.82605 21.1932 1.83738 18.3403 0.536572 17.7245C0.42898 17.6384 0.661627 17.0583 0.665507 16.8911C1.10752 16.734 7.3761 15.7921 7.3761 15.7921C7.81617 15.7187 8.25624 15.6452 8.70019 15.4046C10.6931 14.5307 12.3885 12.3116 13.7339 11.0044C14.745 9.94046 14.9621 10.0291 15.8597 9.12985L23.9478 0.618179L26.7976 0.600674C28.5094 2.39701 27.4848 4.04619 28.8583 6.25292C29.8111 7.69705 30.3102 9.79984 31.4899 10.9146L35.2478 14.2641C38.812 16.5217 38.3796 16.2607 40.6643 16.9829C41.2866 18.503 41.3215 16.9982 40.0313 20.6488Z" fill="#8FCEF2"/>
</svg>
