<svg width="45" height="46" viewBox="0 0 45 46" fill="none" xmlns="http://www.w3.org/2000/svg">
<g clip-path="url(#clip0_9181_69)">
<path fill-rule="evenodd" clip-rule="evenodd" d="M42.4653 13.6841C44.6634 19.2969 46.0074 24.4882 40.7695 30.7995C40.6282 30.6861 40.6282 30.5728 40.4869 30.3461C38.2259 31.9329 38.6498 32.953 36.8127 35.4467C35.3996 37.3736 34.4104 38.167 32.432 39.7538C23.5292 46.5546 10.2456 45.5345 4.7343 39.7538C0.777495 35.56 -0.211707 25.6989 1.20144 20.4849C3.03853 15.3843 6.00614 3.823 16.746 1.55607C22.8226 0.195914 29.323 0.309259 34.693 2.46284C39.639 4.27639 40.9108 11.9839 42.4653 13.6841Z" fill="#23B6EB"/>
<path fill-rule="evenodd" clip-rule="evenodd" d="M10.938 21.8832C16.6565 19.3917 20.4698 17.7491 22.3777 16.9556C27.8254 14.6897 28.9574 14.2961 29.6951 14.2831C29.8574 14.2803 30.2203 14.3205 30.4553 14.5112C30.8039 14.7941 30.8059 15.4082 30.7672 15.8146C30.472 18.9164 29.1946 26.4436 28.5448 29.9177C28.2697 31.3877 27.7283 31.8806 27.2042 31.9288C26.0651 32.0337 25.2 31.176 24.0967 30.4528C22.3702 29.321 21.3949 28.6165 19.719 27.5122C17.7823 26.2359 19.0378 25.5345 20.1415 24.3881C20.4304 24.0881 25.4495 19.5228 25.5466 19.1086C25.5588 19.0568 25.5701 18.8637 25.4554 18.7618C25.3406 18.6599 25.1714 18.6947 25.0492 18.7224C24.8761 18.7617 22.118 20.5847 16.775 24.1914C15.9921 24.729 15.283 24.9909 14.6477 24.9772C13.9473 24.9621 12.6 24.5812 11.5985 24.2556C10.37 23.8563 9.39362 23.6451 9.47868 22.967C9.52297 22.6136 10.0094 22.2524 10.938 21.8832Z" fill="white"/>
</g>
<defs>
<clipPath id="clip0_9181_69">
<rect width="45" height="45" fill="white" transform="translate(-0.00012207 0.0720215)"/>
</clipPath>
</defs>
</svg>
