<svg width="45" height="46" viewBox="0 0 45 46" fill="none" xmlns="http://www.w3.org/2000/svg">
<g clip-path="url(#clip0_9181_73)">
<path fill-rule="evenodd" clip-rule="evenodd" d="M43.0333 26.8404C44.2079 21.0918 44.1736 19.5673 44.0896 15.8362C43.8255 12.6266 44.2217 11.4804 42.2411 8.61468C39.3362 4.37348 36.2992 -1.01399 24.5476 1.16393C20.1903 1.96632 16.7572 4.48811 13.0601 6.89528C9.89113 9.07319 8.30664 12.6266 5.13767 15.8362C2.6289 19.1604 -0.408043 19.6189 0.912363 27.4135C1.0444 27.872 2.49685 30.9669 3.55317 33.1449C5.40174 36.6983 7.11827 39.9078 10.8154 41.9711C19.9262 47.1293 29.5652 42.4296 36.0352 36.9275C39.3362 34.1765 41.1847 27.6428 43.0333 26.8404Z" fill="#2787F5"/>
<path fill-rule="evenodd" clip-rule="evenodd" d="M13.7187 14.8748H10.9981C10.2208 14.8748 10.0653 15.2416 10.0653 15.6459C10.0653 16.3682 10.9877 19.9503 14.3599 24.6881C16.6082 27.9236 19.7756 29.6774 22.6579 29.6774C24.3873 29.6774 24.6012 29.2879 24.6012 28.6169V26.1715C24.6012 25.3924 24.7651 25.2369 25.3126 25.2369C25.7162 25.2369 26.4079 25.4391 28.022 26.9991C29.8667 28.848 30.1708 29.6774 31.2083 29.6774H33.929C34.7063 29.6774 35.095 29.2879 34.8708 28.5191C34.6254 27.7529 33.7447 26.6413 32.576 25.3236C31.9419 24.5725 30.9907 23.7637 30.7025 23.3592C30.299 22.8392 30.4143 22.608 30.7025 22.1459C30.7025 22.1459 34.0172 17.4659 34.363 15.8772C34.5359 15.2993 34.363 14.8748 33.5403 14.8748H30.8196C30.1279 14.8748 29.809 15.2416 29.636 15.6459C29.636 15.6459 28.2525 19.0259 26.2926 21.2215C25.6584 21.857 25.3702 22.0592 25.0243 22.0592C24.8514 22.0592 24.6011 21.857 24.6011 21.2793V15.8772C24.6011 15.1838 24.4004 14.8748 23.8238 14.8748H19.5485C19.1163 14.8748 18.8562 15.1965 18.8562 15.5015C18.8562 16.1587 19.8362 16.3103 19.9372 18.1592V22.1748C19.9372 23.0551 19.7785 23.2148 19.4327 23.2148C18.5104 23.2148 16.2668 19.8197 14.9362 15.9348C14.6756 15.1798 14.4141 14.8748 13.7187 14.8748Z" fill="white"/>
</g>
<defs>
<clipPath id="clip0_9181_73">
<rect width="45" height="45" fill="white" transform="translate(-0.00012207 0.0720215)"/>
</clipPath>
</defs>
</svg>
