<svg width="121" height="139" viewBox="0 0 121 139" fill="none" xmlns="http://www.w3.org/2000/svg">
<path fill-rule="evenodd" clip-rule="evenodd" d="M0.826478 70.3885C4.79144 68.283 22.6911 56.3373 22.6911 56.3373C28.9583 53.4611 36.0117 44.8346 44.6386 38.7169C62.5574 25.9475 68.8107 9.61105 75.5443 0.70245C96.0736 2.00301 86.1867 6.16863 94.2731 37.3967C96.3588 45.9606 96.2696 49.8042 103.945 56.575C114.498 65.8848 123.067 62.238 119.614 70.3986C118.24 73.3884 107.969 80.0173 103.621 84.5862L88.8745 101.275C68.3539 127.719 72.1902 117.095 67.1587 137.03C60.2774 138.244 61.5757 138.549 53.7859 136.72C41.2937 112.532 47.9584 120.653 30.8934 96.6329C27.4139 91.8823 4.32509 74.3155 0.807362 71.2122C0.15503 71.197 0.826478 70.3885 0.826478 70.3885Z" fill="white"/>
</svg>
