<svg width="184" height="52" viewBox="0 0 184 52" fill="none" xmlns="http://www.w3.org/2000/svg">
<path fill-rule="evenodd" clip-rule="evenodd" d="M153.924 20.0274C153.671 17.62 155.187 14.6968 151.018 9.10826C148.912 6.27099 143.774 5.11033 140.405 5.49723C135.604 6.09907 134.888 7.77564 131.014 10.0111C128.066 11.7306 126.381 15.6855 123.939 17.878L123.434 16.4164C122.97 13.4931 121.96 8.80746 119.559 7.0879C116.106 4.63753 111.052 4.07867 107.052 4.93845C101.872 6.05617 101.493 7.30268 98.292 11.4296C95.4283 15.1267 95.2178 19.1247 93.7017 23.3376C91.5539 23.0367 92.4383 22.6929 89.2798 19.3398C87.0899 17.0184 85.279 14.31 84.6473 11.3438C84.2683 9.45225 84.2262 9.96804 83.5103 8.46342C82.4153 6.14202 84.0999 2.91797 80.6887 2.78901C78.7936 2.74602 77.7408 5.28228 76.3932 6.7869C74.3296 9.06531 64.7278 19.6835 63.7171 20.0274C60.6007 18.1359 65.7385 3.94954 46.198 6.27094C41.0602 6.87279 36.0909 13.5791 34.28 18.1359C33.6062 19.8555 33.1008 23.1227 32.1322 24.6273C28.9316 24.5843 25.2678 16.8893 23.7938 13.8801C20.9722 8.11955 21.9409 12.1604 19.2035 4.1215C18.6139 2.44493 16.045 0.252573 13.7709 5.06734C12.7602 7.21678 11.96 6.87283 11.4126 8.03353C10.7809 9.36619 11.0335 9.88202 9.9386 11.6446C9.09634 13.0202 8.71732 13.7081 8.04351 15.1697C4.42178 23.0797 0.800028 26.5619 -0.00012207 28.3244C2.73723 32.5803 0.631581 28.1095 3.03203 34.1279L9.0121 46.5947C9.98071 48.5722 10.1492 52.4412 13.5603 50.8506C14.8658 50.2487 14.9922 46.2937 16.6346 44.1443C17.898 42.4677 19.3719 40.2324 20.7196 38.6848L27.7525 31.7635C29.437 30.2159 28.8895 30.0439 31.3742 30.4308C32.6376 33.483 34.1115 37.9108 35.9645 40.4472C38.2386 43.5424 43.1238 45.563 47.0403 44.4453C51.5464 43.1556 52.9782 41.0922 56.2631 38.8997C58.3266 37.5241 60.9797 31.1617 61.822 28.5393C64.0119 29.3561 64.7699 32.2794 65.8649 34.1279C68.518 38.6418 70.2025 40.0603 72.6451 45.9068C73.5716 48.0993 73.9927 51.2804 77.2354 50.3777C79.0042 49.002 77.6987 46.8096 79.6359 43.7144C80.8993 41.6509 82.289 39.9745 83.8893 38.04C86.0371 35.3746 90.2905 28.6252 92.691 27.5505C94.3755 30.3877 89.743 41.7799 104.23 44.6602C106.841 45.1761 113.032 43.2416 114.8 41.4791C117.411 38.8567 119.264 36.3633 121.033 32.8382C122.212 33.956 125.455 47.5404 136.952 43.9293C142.511 42.1668 141.753 42.4247 146.006 39.0286C149.417 36.3633 149.207 31.6344 152.239 30.7746C154.134 30.9896 159.019 42.1237 160.367 46.8955C160.535 47.4544 160.788 47.7554 160.998 48.4862C161.799 50.9795 163.146 53.301 166.052 51.1516C167.063 48.6152 165.968 48.2282 168.158 45.6489C171.358 41.8658 177.086 32.1073 181.802 29.27C183.403 28.3243 185.045 26.1749 183.15 24.6273C180.455 22.3919 177.802 22.435 176.875 15.9006C176.623 14.0091 176.412 11.6446 176.075 9.96804C175.401 6.6149 176.454 5.11041 176.075 3.00395C175.78 1.2414 173.253 -0.564175 171.695 0.166638C171.064 0.46756 169.59 3.99265 168.874 5.11037C167.147 7.77568 164.073 11.3008 161.841 13.2783C160.577 14.396 159.061 15.5137 157.798 16.7174C156.535 17.8351 155.271 20.1564 153.924 20.0274Z" fill="white"/>
</svg>
