<svg width="49" height="56" viewBox="0 0 49 56" fill="none" xmlns="http://www.w3.org/2000/svg">
<path fill-rule="evenodd" clip-rule="evenodd" d="M0.968129 27.9773C2.55493 27.1346 9.71845 22.3539 9.71845 22.3539C12.2266 21.2028 15.0494 17.7505 18.5019 15.3021C25.6731 10.1917 28.1757 3.65382 30.8706 0.0885548C39.0865 0.609044 35.1297 2.27614 38.3659 14.7737C39.2006 18.2011 39.1649 19.7393 42.2365 22.449C46.4599 26.1748 49.8895 24.7154 48.5076 27.9813C47.9575 29.1778 43.8472 31.8307 42.1069 33.6592L36.2053 40.3381C27.9929 50.921 29.5282 46.6692 27.5146 54.6476C24.7606 55.1334 25.2802 55.2554 22.1628 54.5234C17.1633 44.8432 19.8305 48.0931 13.0011 38.4803C11.6085 36.5792 2.36829 29.5488 0.960478 28.3069C0.699412 28.3008 0.968129 27.9773 0.968129 27.9773Z" fill="white"/>
</svg>
