<svg width="78" height="64" viewBox="0 0 78 64" fill="none" xmlns="http://www.w3.org/2000/svg">
<path fill-rule="evenodd" clip-rule="evenodd" d="M30.6813 1.96534C30.3213 6.27012 29.6014 10.1745 28.7506 14.4125C28.1616 17.3825 25.8709 22.2212 23.842 24.0566C21.0278 26.5928 11.2106 28.8619 7.28376 28.962C5.15672 29.0288 3.71686 27.4604 1.78615 29.6962C1.52436 31.5983 1.52438 32.8997 1.06625 35.0354C0.73901 36.5705 -0.406339 38.3725 0.149966 39.8074C1.8516 41.6094 3.74958 39.8742 5.54939 39.3069C7.18558 38.7729 9.60712 37.9387 11.1779 37.5382C14.4175 36.704 21.2568 36.2368 23.8747 38.5393C27.3107 41.5093 26.918 45.8141 26.8526 49.9854L25.7073 63.6005C27.5398 64.7685 29.765 63.0332 31.892 62.7329C32.0884 62.6995 38.6332 63.5004 36.6697 59.9965C36.1462 59.0621 36.1134 60.0299 35.8843 58.6283C35.5898 56.893 37.1606 47.883 37.5533 46.1811C38.764 40.9753 46.7814 37.6049 51.1664 35.9364C52.4099 35.4692 57.0239 35.1355 58.4637 35.1689C59.8054 37.7384 60.0672 40.8752 63.8305 41.1088C67.2337 41.3091 69.9825 40.7418 72.4041 38.3725C73.484 37.338 73.6149 36.2367 74.7275 35.002C77.2145 32.2657 77.3126 29.3291 77.7707 26.6594C77.9016 25.9253 77.9999 22.5216 77.9999 21.6206C77.6072 20.1523 73.124 15.6472 68.3464 17.9164C66.8083 18.6172 65.1067 18.1834 62.4233 21.9209C61.2125 23.5894 62.2924 23.6562 59.9363 24.5572C57.9401 25.2913 53.3589 25.5583 51.1664 25.5583C47.1414 25.5583 47.2395 24.724 43.9671 23.2223C40.662 21.7207 40.7602 20.3858 40.0403 17.1823C39.2549 13.6116 40.3348 7.57163 41.6437 4.20122C42.1673 2.8664 43.0835 1.69842 42.5927 0.263495C40.891 -0.570765 38.6658 0.830743 36.8006 0.964224C31.7939 1.19782 35.4262 0.59715 30.6813 1.96534Z" fill="white"/>
</svg>
