<svg width="175" height="26" viewBox="0 0 175 26" fill="none" xmlns="http://www.w3.org/2000/svg">
<g clip-path="url(#clip0_9181_149)">
<path fill-rule="evenodd" clip-rule="evenodd" d="M21.9086 10.9751C21.8445 11.4604 22.6773 12.1614 22.2289 13.0781C22.1008 13.2938 21.268 13.9948 21.268 14.2644H19.7305C17.1681 14.4801 13.1323 19.8722 11.659 21.9213C10.5699 23.4311 11.0184 24.2399 10.1856 25.534C10.0574 25.8036 8.32782 25.8576 8.1997 25.6419L2.04993 17.5536C1.2812 16.2595 0.768722 15.4507 0 14.6957C0.896843 13.0242 3.13895 11.4604 4.74045 7.52415C5.06075 6.71532 5.18888 6.49963 5.6373 5.74473C6.34196 4.72022 6.02166 4.88198 6.40602 3.85747C6.98256 2.34766 6.9185 3.6957 7.68722 2.29374L8.77625 0.352552C11.5949 0.244708 11.0824 0.891769 12.1074 2.83295L17.04 8.98004C18.065 10.0585 18.3853 11.083 20.4993 11.2448C20.4352 11.2448 21.9086 10.9751 21.9086 10.9751Z" fill="black"/>
<path fill-rule="evenodd" clip-rule="evenodd" d="M71.4395 9.52078C70.3505 9.84432 68.9412 10.3296 67.5959 10.3296C67.5959 10.3835 67.66 10.4375 67.7241 10.5453C68.3006 11.1924 70.6708 13.0257 70.9911 13.3492C71.0552 13.4032 71.3755 13.2953 71.4395 13.2953C71.4395 13.3492 71.7598 13.5649 71.888 13.7267L70.6708 15.4522C69.9662 16.9081 69.5177 18.5257 68.3006 19.4963C67.3397 20.2512 66.6991 20.9522 65.8663 21.4375C65.3538 21.7071 63.432 22.6777 62.8555 22.8395C60.3571 23.6483 56.9619 22.6238 55.4886 21.3836C52.0934 18.4179 52.1574 16.7463 52.5418 13.2953C52.5418 13.1875 52.6058 13.1335 52.6058 13.0257C53.5027 9.62863 55.4245 4.29037 60.0368 3.31978C62.2149 2.83449 67.1475 2.78056 68.5568 3.859C70.7349 5.5845 70.9271 8.44235 71.4395 9.52078Z" fill="black"/>
<path fill-rule="evenodd" clip-rule="evenodd" d="M125.032 13.0385C123.622 13.8474 118.305 20.4258 117.601 21.5043C115.743 24.1464 117.408 24.5239 116.384 25.3866C114.398 27.0582 113.18 23.3376 111.067 20.6415C109.145 18.5925 107.223 16.166 105.365 14.2248C105.045 13.9013 102.675 12.1219 101.906 11.7444C101.842 11.6905 101.97 11.313 101.97 11.2052C102.226 11.0973 105.878 10.3964 105.878 10.3964C106.134 10.3424 106.39 10.2885 106.646 10.1268C107.799 9.53361 108.76 8.07773 109.529 7.21498C110.106 6.51399 110.234 6.56791 110.746 5.97478L115.359 0.36691L117.024 0.312988C118.049 1.44535 117.473 2.52378 118.305 3.92575C118.882 4.84242 119.202 6.19046 119.907 6.89145L122.149 8.9944C124.263 10.3964 124.007 10.2346 125.352 10.666C125.736 11.6366 125.736 10.666 125.032 13.0385Z" fill="black"/>
<path fill-rule="evenodd" clip-rule="evenodd" d="M174.591 8.83008C173.374 10.3938 171.901 10.6095 172.541 14.2762C172.605 14.4919 173.31 15.9478 173.822 16.9723C173.758 16.9184 173.758 16.8644 173.694 16.7566C172.669 17.5115 172.861 17.9968 172.029 19.1831C171.388 20.0997 170.94 20.4772 170.043 21.2321C166.007 24.4674 159.985 23.9821 157.487 21.2321C155.693 19.237 155.245 14.5458 155.886 12.0654C156.718 9.63891 158.064 4.13889 162.932 3.06045C165.687 2.41339 168.634 2.46731 171.068 3.49183C173.31 4.35458 173.886 8.02126 174.591 8.83008Z" fill="black"/>
</g>
<defs>
<clipPath id="clip0_9181_149">
<rect width="174.591" height="25.4903" fill="white" transform="translate(0 0.312988)"/>
</clipPath>
</defs>
</svg>
