<svg width="148" height="54" viewBox="0 0 148 54" fill="none" xmlns="http://www.w3.org/2000/svg">
<path fill-rule="evenodd" clip-rule="evenodd" d="M102.791 25.4594C102.422 23.6125 102.237 21.7656 102.052 21.7656C101.775 21.7656 100.298 25.7364 100.021 27.0292C99.8362 27.768 97.897 31.5541 98.5434 32.3852C99.2821 32.8469 100.39 32.4775 101.314 32.5699C102.607 32.6622 102.791 32.5699 103.992 32.2928C104.361 32.1081 103.899 30.723 103.622 29.0608C103.438 27.9527 103.068 26.5675 102.791 25.4594Z" fill="white"/>
<path fill-rule="evenodd" clip-rule="evenodd" d="M141.575 8.8374C139.266 6.80583 137.142 5.51302 134.372 3.94317C123.568 -2.15152 111.84 0.711142 100.112 0.43411C93.0943 0.249423 81.459 -0.304645 74.995 0.711137C70.5625 1.44989 66.5917 1.72692 62.0668 1.81927C52.6478 2.37333 36.9493 6.62114 32.2398 8.09864C25.7757 10.1302 19.4963 12.0694 13.9557 14.8397C9.06148 17.2407 3.79788 22.689 2.04335 27.8602C0.288818 32.2927 -0.542276 32.2004 0.381162 38.018C1.67398 46.4213 15.5255 51.9619 23.7441 52.3313C32.2398 52.793 40.366 51.6849 48.2152 52.3313C55.2334 52.8854 65.2989 53.2548 72.5017 52.9777C80.8126 52.3313 86.9073 53.3471 97.3422 52.793C107.408 52.239 109.347 51.0385 118.397 49.0069C125.138 47.5294 138.805 41.0654 142.221 35.7094C147.208 27.4908 150.717 16.9636 141.575 8.8374ZM32.1474 39.1262C31.0393 40.0496 28.0843 40.1419 26.6991 40.3266C25.2216 40.419 25.037 40.3266 23.7441 40.2343C20.6045 40.1419 18.4805 39.7726 17.4648 36.8176C16.726 34.4166 16.726 33.7702 16.5413 31.1846C16.5413 30.4458 16.5413 28.4143 16.726 27.7679C16.9107 26.6597 17.1877 25.2746 17.3724 24.2588C17.4648 23.7048 18.1112 22.3196 18.2959 21.7655C19.4963 18.9952 21.8049 16.9637 24.7599 16.5943C25.6834 16.3172 28.3613 16.3172 30.0235 16.5943C30.3006 16.6866 31.1316 16.9636 31.3163 17.1483C31.9627 17.9794 31.3163 19.5493 30.0235 19.0876C28.3613 18.5335 25.9604 18.6258 24.2982 19.0876C22.5437 19.6416 21.8973 20.3804 20.8815 21.8579C19.8657 23.243 19.404 26.6598 19.127 27.4908C18.9423 28.599 18.7576 29.5224 18.7576 30.5382C18.7576 32.2927 19.2193 35.3401 19.5887 36.1712C19.958 36.8176 20.2351 37.2793 21.2509 37.6487C22.2666 38.018 26.0527 38.2027 27.0685 38.018C28.1766 37.9257 28.9154 37.6487 30.0235 37.2793C30.947 37.0023 31.7781 37.3716 32.1474 38.1104C32.3321 38.4798 32.3321 38.9415 32.1474 39.1262ZM46.1837 39.1262C45.722 39.4955 44.5215 39.1262 43.5057 39.1262C42.0282 39.0338 40.6431 39.2185 39.1656 39.3108C38.7038 39.4032 38.3345 39.3108 37.8727 39.4032C36.3029 39.5879 35.0101 38.2951 36.9493 37.464C37.411 37.2793 38.2421 37.5563 38.9809 37.464C39.9043 37.2793 39.4426 34.3243 39.4426 33.3085C39.5349 31.9233 39.6273 18.9029 39.2579 18.9029C38.6115 18.8105 38.0574 18.9029 37.411 18.9029C36.7646 18.9029 36.3029 19.1799 35.7488 19.1799C34.8254 19.0876 33.6249 18.5335 33.8096 17.5177C33.9943 16.5943 35.6565 17.2407 36.9493 17.2407C38.8885 17.1483 40.5507 17.056 42.3052 16.6866C43.5981 16.4096 44.0598 15.7632 45.4449 16.4096C45.999 16.6866 46.1837 17.333 46.0913 17.7947C45.722 18.7182 42.3052 17.9794 41.6588 18.8105C41.4742 18.9029 41.5665 21.3961 41.5665 24.5358C41.5665 27.2138 41.6588 30.2612 41.5665 32.3851C41.5665 33.2162 41.4742 36.5405 41.5665 37.0946C41.8435 38.1104 45.3526 36.6329 46.4607 38.018C46.8301 38.4798 46.5531 38.9415 46.1837 39.1262ZM62.1592 17.8871C60.9587 18.4411 57.819 17.5177 57.2649 18.0718C56.8032 18.3488 56.8956 21.6732 56.7109 23.0583C56.4338 25.0899 56.6185 26.3827 56.6185 28.3219C56.6185 30.1688 56.2492 33.7702 56.1568 36.2635C55.9721 37.1869 56.2492 38.1104 56.1568 38.9415C55.9721 39.7726 54.587 40.1419 53.7559 39.4955C52.8324 38.6644 53.5712 37.741 53.7559 36.9099C54.1253 35.063 54.0329 32.7544 54.2176 30.8152C54.4023 28.599 54.2176 26.3827 54.4023 24.2588C54.4946 23.0583 54.9563 19.0876 54.6793 18.1641C54.4946 17.7024 51.4473 18.4412 50.3392 18.6258C49.3234 18.8105 48.0306 18.3488 47.8459 17.4254C47.8459 17.2407 47.7535 17.056 47.7535 16.8713C48.2152 15.8555 49.0463 16.6866 52.0937 16.3172C53.2942 16.2249 55.2334 15.7632 56.3415 15.9479C57.4496 16.1326 57.542 16.0402 58.6501 16.0402C59.6659 16.0402 59.9429 15.8555 60.8664 15.6708C61.7898 15.5785 63.729 16.6866 62.1592 17.8871ZM75.272 18.7182C74.8103 19.8263 74.4409 20.9344 74.1639 22.3196C73.7945 24.1665 73.0557 26.0133 72.594 27.6755C72.317 28.6913 71.7629 29.7071 71.3935 30.7229C70.9318 31.831 70.6548 32.8468 70.1931 33.9549C69.7314 34.9707 68.8079 37.0946 68.6232 38.018C68.4385 38.7568 68.2539 39.4955 67.5151 39.8649C66.684 40.2343 64.4678 39.6802 66.3146 37.0946C67.1457 35.9865 68.9926 31.6463 69.085 30.7229C68.0692 29.4301 68.0692 28.9683 67.4228 27.5832C66.961 26.5674 66.4993 25.3669 65.9453 23.8894C65.4836 22.5043 65.2065 21.6732 64.8371 20.288C64.4678 18.7182 63.6367 17.2407 63.9137 16.4096C64.2831 15.4862 65.2989 15.5785 65.8529 16.0402C66.3146 16.3172 66.4993 17.6101 66.684 18.9029C66.8687 20.011 66.961 20.8421 67.2381 21.5808C67.7921 23.6124 68.4385 25.1822 69.085 26.9368C69.362 27.5832 69.7314 28.876 70.1007 28.5066C70.6548 27.5832 71.4859 24.0741 72.04 22.0426C72.7787 19.9186 73.2404 16.6866 74.2562 16.0402C75.0873 15.7632 76.0107 15.9479 76.1954 16.6866C76.2878 17.5177 75.6414 17.9794 75.272 18.7182ZM92.6326 17.5177C91.0628 18.9029 85.9839 15.2091 84.9681 22.8737C84.7834 24.0741 84.7834 24.9052 84.8757 26.0133C85.1528 28.4143 89.9547 25.8286 91.5245 29.153C92.3556 30.8152 92.1709 33.1238 91.7092 34.6937C91.4322 35.7094 91.3398 36.2635 90.9704 37.1869C89.8623 40.5113 86.4456 40.419 84.137 40.6037C82.5671 40.6037 78.9657 41.1577 79.2428 38.9415C79.4275 37.9257 80.4432 38.3874 81.3667 38.5721C83.0289 38.8491 84.8757 38.6644 86.1686 38.3874C86.9073 38.2027 87.9231 38.2951 88.4771 37.3716C89.4006 35.8941 89.3082 35.6171 89.6776 33.3085C89.8623 31.831 90.1393 29.8918 88.3848 29.5224C86.815 29.153 85.5222 29.5224 83.9523 28.7837C81.182 27.5832 82.5672 22.7813 83.0289 20.3804C83.1212 18.9029 84.8757 16.2249 86.4456 16.0402C87.369 15.9479 88.1078 15.6708 89.0312 15.7632C89.4929 15.7632 92.0786 15.4862 92.6326 16.8713C92.9097 16.9637 92.9097 17.2407 92.6326 17.5177ZM107.315 40.3266C106.3 40.7883 105.284 40.419 105.099 39.4032C104.914 38.6644 105.191 38.2951 105.099 37.464C105.099 37.2793 104.73 34.8783 104.453 34.6013C104.176 34.2319 103.16 34.2319 102.236 34.3243C101.313 34.4166 100.297 34.1396 99.4661 34.2319C98.2656 34.2319 97.5268 34.2319 97.3422 34.509C97.1575 34.6937 96.7881 35.8941 96.5111 36.7252C96.234 37.5563 96.0493 38.018 95.8647 38.5721C95.68 39.4032 95.8647 40.0496 95.0336 40.5113C94.4795 40.8807 93.3714 40.6037 93.0943 40.0496C92.5403 39.1262 93.7407 38.2951 94.4795 36.3558C94.9412 34.9707 95.4029 33.7702 95.8647 32.3851C96.3264 31.1846 96.9728 29.5224 97.3422 28.2296C97.8039 26.8444 98.3579 25.5516 98.8197 24.2588C99.0967 23.5201 99.2814 22.966 99.6508 22.3196L101.036 18.1641C101.313 17.2407 100.944 16.5943 101.59 16.0402C102.236 16.0402 103.067 16.3172 103.437 16.779C103.622 17.5177 103.437 17.7947 103.437 18.4412C103.529 21.9502 105.191 26.9368 105.376 28.4143C105.561 29.3377 105.93 31.0922 106.3 32.9391C106.669 34.6013 107.038 36.3558 107.315 37.5563C107.685 38.3874 108.054 39.6802 107.315 40.3266ZM114.98 34.786C114.333 36.7252 113.779 37.464 113.225 39.4032C113.133 39.9573 112.948 40.3266 112.394 40.5113C108.977 40.1419 111.378 38.2027 112.302 35.3401C112.764 34.0473 114.795 30.5382 114.426 29.0607C114.056 27.6755 110.917 23.3354 110.086 20.6574C109.809 19.9186 109.07 17.6101 109.532 16.6866C109.993 15.5785 111.748 15.9479 111.932 17.056C111.932 17.9794 112.025 18.8105 112.21 19.734C112.579 21.6732 113.41 23.0583 114.149 24.3512C114.518 24.9976 115.072 26.0133 115.719 26.4751C115.903 26.5674 115.903 26.6597 116.088 26.4751C116.55 25.8287 116.734 24.6282 117.104 23.7971C117.565 22.689 118.581 19.5493 119.505 17.333C119.782 16.5943 120.336 16.2249 120.613 16.1326C121.259 16.2249 121.629 16.5019 121.998 16.9636C121.998 17.7947 121.721 17.7947 121.352 18.4412C120.52 19.9187 120.059 21.3038 119.505 22.7813C118.766 24.8129 118.12 26.2904 117.381 28.7837C116.827 30.6305 115.626 33.4008 114.98 34.786ZM133.264 18.5335C132.802 18.6258 132.156 18.4411 131.509 18.3488C130.032 18.2565 128.277 18.1641 127.354 18.9029C126.8 19.3646 126.338 20.1033 125.969 20.8421C125.415 21.8579 125.322 22.1349 125.23 23.243C124.861 25.3669 124.214 26.8444 127.077 27.1215C128.277 27.2138 128.647 27.1215 129.662 27.7679C131.232 28.9683 130.678 31.2769 130.309 33.0315C130.032 33.8626 129.94 34.6937 129.755 35.5248C129.108 37.8334 129.108 38.7568 127.446 39.5879C126.707 39.9573 125.045 40.3266 124.491 40.3266C123.291 40.3266 121.906 40.419 120.613 40.6037C118.951 40.7884 117.658 40.7884 117.842 39.2185C118.12 38.3874 119.228 38.2951 120.059 38.4798C120.89 38.6644 121.629 38.5721 122.552 38.5721C124.584 38.3874 127.169 38.8491 127.631 35.5248C127.816 34.1396 128.37 33.4932 128.554 31.1846C128.647 30.0765 128.647 29.6148 127.631 29.3377C126.8 29.0607 126.338 29.153 125.599 28.9683C125.045 28.876 124.214 28.599 123.752 28.2296C122.367 27.2138 122.921 24.4435 123.106 23.0583C123.383 21.4885 124.214 18.8105 125.322 17.7024C126.061 16.9636 126.246 16.5019 128.093 16.4096C129.201 16.3172 130.309 16.5019 131.417 16.5019C132.525 16.5019 133.633 16.5019 133.726 17.6101C133.818 18.0718 133.449 18.5335 133.264 18.5335Z" fill="white"/>
</svg>
